<?xml version="1.0" encoding="UTF-8" standalone="no"?>
<svg
   version="1.1"
   style="display:block"
   viewBox="0 0 1349.1753 1615.9036"
   width="674.58765"
   height="807.95178"
   preserveAspectRatio="none"
   id="svg3"
   sodipodi:docname="MockLock.svg"
   inkscape:version="1.4.4 (dcaf3e7d9e, 2026-05-05)"
   xmlns:inkscape="http://www.inkscape.org/namespaces/inkscape"
   xmlns:sodipodi="http://sodipodi.sourceforge.net/DTD/sodipodi-0.dtd"
   xmlns="http://www.w3.org/2000/svg"
   xmlns:svg="http://www.w3.org/2000/svg"
   xmlns:c2pa="http://c2pa.org/manifest">
  <defs
     id="defs3" />
  <sodipodi:namedview
     id="namedview3"
     pagecolor="#ffffff"
     bordercolor="#000000"
     borderopacity="0.25"
     inkscape:showpageshadow="2"
     inkscape:pageopacity="0.0"
     inkscape:pagecheckerboard="0"
     inkscape:deskcolor="#d1d1d1"
     inkscape:zoom="0.79882812"
     inkscape:cx="336.74328"
     inkscape:cy="383.06113"
     inkscape:window-width="1920"
     inkscape:window-height="1020"
     inkscape:window-x="0"
     inkscape:window-y="0"
     inkscape:window-maximized="1"
     inkscape:current-layer="svg3" />
  <metadata
     id="metadata1">
    <c2pa:manifest>AAAMZ2p1bWIAAAAeanVtZGMycGEAEQAQgAAAqgA4m3EDYzJwYQAAAAxBanVtYgAAAEdqdW1kYzJtYQARABCAAACqADibcQN1cm46YzJwYTphZTk4YmY4OC1kZDkwLTQyOGYtYmY1Zi05YjI5MzJlOTI0ZWMAAAAB4mp1bWIAAAApanVtZGMyYXMAEQAQgAAAqgA4m3EDYzJwYS5hc3NlcnRpb25zAAAAAO1qdW1iAAAAQWp1bWRjYm9yABEAEIAAAKoAOJtxE2MycGEuYWN0aW9ucy52MgAAAAAYYzJzaI1u7LVsg+s8uPIuxDC9B6sAAACkY2JvcqFnYWN0aW9uc4GjZmFjdGlvbmxjMnBhLmNyZWF0ZWRxZGlnaXRhbFNvdXJjZVR5cGV4Rmh0dHA6Ly9jdi5pcHRjLm9yZy9uZXdzY29kZXMvZGlnaXRhbHNvdXJjZXR5cGUvdHJhaW5lZEFsZ29yaXRobWljTWVkaWFrZGVzY3JpcHRpb252Q3JlYXRlZCBieSBSZWNyYWZ0IEFJLgAAAMRqdW1iAAAAQGp1bWRjYm9yABEAEIAAAKoAOJtxE2MycGEuaGFzaC5kYXRhAAAAABhjMnNoQp7Sm7fv0aUIugouJpgBAgAAAHxjYm9ypWpleGNsdXNpb25zgaJlc3RhcnQY22ZsZW5ndGgZEIxkbmFtZW5qdW1iZiBtYW5pZmVzdGNhbGdmc2hhMjU2ZGhhc2hYIHMgOFNkUIjoxcYax95Loc66BkayEV+4kpa8yPJOzYXkY3BhZEkAAAAAAAAAAAAAAAI0anVtYgAAACdqdW1kYzJjbAARABCAAACqADibcQNjMnBhLmNsYWltLnYyAAAAAgVjYm9ypmppbnN0YW5jZUlEeCx4bXA6aWlkOjMwY2QzYmJlLWJkNmYtNGM0Ni1iMTc0LTZkNTAxYTQ4MWYzZnRjbGFpbV9nZW5lcmF0b3JfaW5mb6NkbmFtZWpyZWNyYWZ0LmFpZ3ZlcnNpb254KDgxY2U4MmUyYzVjM2NiZmJlOGM2ZmJlMTc5ZDVmOGQ5MWM0MDljZTF3b3JnLmNvbnRlbnRhdXRoLmMycGFfcnNmMC45MC43aXNpZ25hdHVyZXhNc2VsZiNqdW1iZj0vYzJwYS91cm46YzJwYTphZTk4YmY4OC1kZDkwLTQyOGYtYmY1Zi05YjI5MzJlOTI0ZWMvYzJwYS5zaWduYXR1cmVyY3JlYXRlZF9hc3NlcnRpb25zgqJjdXJseCpzZWxmI2p1bWJmPWMycGEuYXNzZXJ0aW9ucy9jMnBhLmFjdGlvbnMudjJkaGFzaFggtKzWx6Z4Xsd0Q6R4dFpcpk+N1A55npJKrfilGBXKHl+iY3VybHgpc2VsZiNqdW1iZj1jMnBhLmFzc2VydGlvbnMvYzJwYS5oYXNoLmRhdGFkaGFzaFggNP8H12z5Pb8OpYK3bbz/Htw2LsBs1uAODsWhxMpKMIRoZGM6dGl0bGV4GlJlY3JhZnQgQUkgR2VuZXJhdGVkIEltYWdlY2FsZ2ZzaGEyNTYAAAfcanVtYgAAAChqdW1kYzJjcwARABCAAACqADibcQNjMnBhLnNpZ25hdHVyZQAAAAesY2JvctKEWQOwogEmGCGCWQHnMIIB4zCCAYmgAwIBAgIJALfeWmNDUW56MAoGCCqGSM49BAMCMEAxHzAdBgNVBAMMFlJlY3JhZnQgU3RhZ2luZyBEZXYgQ0ExEDAOBgNVBAoMB1JlY3JhZnQxCzAJBgNVBAYTAlVTMB4XDTI2MDYxMjE5NDM1MFoXDTI3MDYxMjE5NDM1MFowNzELMAkGA1UEBhMCVVMxEzARBgNVBAoTClJlY3JhZnQgQUkxEzARBgNVBAMTCnJlY3JhZnQuYWkwWTATBgcqhkjOPQIBBggqhkjOPQMBBwNCAARKaTVbACsg/DeG3LeOxYdID/VA6EFG73E6Oknb+KIiCFJygRUz4ueN2z/t2qYb6CIUvS8RvgOiiClfoqsYtw81o3UwczAMBgNVHRMBAf8EAjAAMA4GA1UdDwEB/wQEAwIGwDATBgNVHSUEDDAKBggrBgEFBQcDBDAdBgNVHQ4EFgQULzHpBen96SL1y4IPHa8MkMshXf0wHwYDVR0jBBgwFoAUAgsqOBrKqpdK//m/kxZo7ZR4ebcwCgYIKoZIzj0EAwIDSAAwRQIgU8hKW0aXvvk8SQgVFNkax69Ym9ae8GsT2RZTQw+B51ACIQC0D4BkEoRD4N0r2ZRkNy0HZaW3WICy/QZGN95ilF4yzFkBvTCCAbkwggFfoAMCAQICCQCc+Wg7T6ATbzAKBggqhkjOPQQDAjBAMR8wHQYDVQQDDBZSZWNyYWZ0IFN0YWdpbmcgRGV2IENBMRAwDgYDVQQKDAdSZWNyYWZ0MQswCQYDVQQGEwJVUzAeFw0yNjA2MTIxOTQwMTZaFw0yODA2MTExOTQwMTZaMEAxHzAdBgNVBAMMFlJlY3JhZnQgU3RhZ2luZyBEZXYgQ0ExEDAOBgNVBAoMB1JlY3JhZnQxCzAJBgNVBAYTAlVTMFkwEwYHKoZIzj0CAQYIKoZIzj0DAQcDQgAEQ9IQBlcVbKaKPYrQSfOhL/00s7xUDC7RinIuLO/I1k99y9yh6oWF9kPxaP+tx1v1PeOL3yrVquJ730H0ZGiDyqNCMEAwDwYDVR0TAQH/BAUwAwEB/zAOBgNVHQ8BAf8EBAMCAYYwHQYDVR0OBBYEFAILKjgayqqXSv/5v5MWaO2UeHm3MAoGCCqGSM49BAMCA0gAMEUCIFQwNImLlYDeQhjgF+ZiqTbgcuzSqmOJw3Q2lQ/hu83FAiEA9O8cLm/xfoVLqB4jtdbuHzi3WL+p2RN+DRGkwpYswVuhY3BhZFkDpAAAAAAAAAAAAAAAAAAAAAAAAAAAAAAAAAAAAAAAAAAAAAAAAAAAAAAAAAAAAAAAAAAAAAAAAAAAAAAAAAAAAAAAAAAAAAAAAAAAAAAAAAAAAAAAAAAAAAAAAAAAAAAAAAAAAAAAAAAAAAAAAAAAAAAAAAAAAAAAAAAAAAAAAAAAAAAAAAAAAAAAAAAAAAAAAAAAAAAAAAAAAAAAAAAAAAAAAAAAAAAAAAAAAAAAAAAAAAAAAAAAAAAAAAAAAAAAAAAAAAAAAAAAAAAAAAAAAAAAAAAAAAAAAAAAAAAAAAAAAAAAAAAAAAAAAAAAAAAAAAAAAAAAAAAAAAAAAAAAAAAAAAAAAAAAAAAAAAAAAAAAAAAAAAAAAAAAAAAAAAAAAAAAAAAAAAAAAAAAAAAAAAAAAAAAAAAAAAAAAAAAAAAAAAAAAAAAAAAAAAAAAAAAAAAAAAAAAAAAAAAAAAAAAAAAAAAAAAAAAAAAAAAAAAAAAAAAAAAAAAAAAAAAAAAAAAAAAAAAAAAAAAAAAAAAAAAAAAAAAAAAAAAAAAAAAAAAAAAAAAAAAAAAAAAAAAAAAAAAAAAAAAAAAAAAAAAAAAAAAAAAAAAAAAAAAAAAAAAAAAAAAAAAAAAAAAAAAAAAAAAAAAAAAAAAAAAAAAAAAAAAAAAAAAAAAAAAAAAAAAAAAAAAAAAAAAAAAAAAAAAAAAAAAAAAAAAAAAAAAAAAAAAAAAAAAAAAAAAAAAAAAAAAAAAAAAAAAAAAAAAAAAAAAAAAAAAAAAAAAAAAAAAAAAAAAAAAAAAAAAAAAAAAAAAAAAAAAAAAAAAAAAAAAAAAAAAAAAAAAAAAAAAAAAAAAAAAAAAAAAAAAAAAAAAAAAAAAAAAAAAAAAAAAAAAAAAAAAAAAAAAAAAAAAAAAAAAAAAAAAAAAAAAAAAAAAAAAAAAAAAAAAAAAAAAAAAAAAAAAAAAAAAAAAAAAAAAAAAAAAAAAAAAAAAAAAAAAAAAAAAAAAAAAAAAAAAAAAAAAAAAAAAAAAAAAAAAAAAAAAAAAAAAAAAAAAAAAAAAAAAAAAAAAAAAAAAAAAAAAAAAAAAAAAAAAAAAAAAAAAAAAAAAAAAAAAAAAAAAAAAAAAAAAAAAAAAAAAAAAAAAAAAAAAAAAAAAAAAAAAAAAAAAAAAAAAAAAAAAAAAAAAAAAAAAAAAAAAAAAAAAAAAAAAAAAAAAAAAAAAAAAAAAAAAAAAAAAAAAAAAA9lhAC14WXYPUG0rCNT+X09eCaQVFCiYM/Ldy7PbNL4conrdObFkd4XX6weRbv2u1mj1c0Ty+mg1nyDQnL+wqO73YQQ==</c2pa:manifest>
  </metadata>
  <path
     fill="#305bf7"
     d="m 557.69701,9.5981849 c 178.452,-29.1109999 356.512,7.7800001 504.03199,113.6449951 149.09,106.962 249.31,269.024 278.39,450.197 29.56,180.299 -13.9,364.939 -120.76,513.13902 -36.63,50.79 -95.78,105.48 -141.45,151.04 l -195.22999,195.57 c -5.25,5.86 -10.96,11.23 -16.19,16.99 -22.12,24.35 -49.7,46.7 -71.3,71.09 -12.94,13.67 -29.26,28 -42.67,41.9 -13.19,12.62 -25.63,26.28 -39.31,38.35 -23.34,20.43 -59.39,18.7 -81.583,-2.66 -32.175,-30.97 -63.001,-63.12 -94.417,-94.77 l -159.23,-159.12 -128.529,-128.61 c -34.835,-34.68 -68.693,-66.12 -99.545,-104.5 -42.402,-52.74 -70.046998,-100.59 -96.234998,-162.26002 -70.855,-168.29 -71.58,-357.908 -2.015,-526.735 68.913998,-167.569 200.710998,-301.486 367.157998,-373.065995 49.097,-19.723 87.666,-29.828 138.884,-40.2000001 z"
     id="path1" />
  <path
     fill="#fcbf11"
     d="m 418.81301,49.798185 c 49.097,-19.723 87.666,-29.828 138.884,-40.2000001 l 0.946,1.1640001 c 9.747,11.87 22.617,22.868 33.373,33.983 34.902,36.061 75.333,67.892995 97.553,114.094995 14.78,30.732 21.56,61.636 19.05,95.656 -5.85,79.216 -67.918,129.032 -120.256,180.934 l -114.29,114.211 c -17.789,17.715 -48.838,45.36 -59.697,66.669 -36.424,71.471 16.506,160.529 95.83,167.469 28.529,2.74 56.962,-6.12 78.881,-24.58 32.685,-27.736 61.262,-66.345 95.232,-92.859 44.25,-34.542 102.84,-55.628 159.31,-51.188 69.09,5.99 133.08,38.813 178.24999,91.43 40.2,47.787 60.1,109.407 55.45,171.687 -8,95.34 -71.71,145.83002 -134.41999,208.37002 l -115.49,115.54 c -34.7,34.89 -88.43,73.27 -43.75,129.69 7.55,9.54 17.37,17.54 25.62,26.45 21.65,23.14 53.5,50.92 73.39,74.87 -5.25,5.86 -10.96,11.23 -16.19,16.99 -22.12,24.35 -49.7,46.7 -71.3,71.09 -64.01,-66.23 -154.365,-130.1 -156.34,-230.96 -1.652,-84.34 54.76,-130.16 108.49,-184.69 l 113.08,-113.71002 c 19.02,-19.03 38.28,-37.84 57.02,-57.16 21.54,-22.21 34.25,-46.29 33.11,-77.99 -1.35,-31.56 -15.36,-61.25 -38.87,-82.34 -41.97,-38.329 -99.19,-46.116 -146.42,-11.56 -12.54,9.18 -22.36,21.28 -33.57,31.84 -24.91,23.47 -48.26,52.51 -76.03,72.43 -36.87,26.02 -80.493,40.8 -125.587,42.54 -65.592,2.59 -129.503,-24.03 -177.256,-68.43 -46.581,-43.44 -73.889,-103.68 -75.86,-167.342 -3.591,-112.7 55.946,-160.647 127.491,-232.353 l 116.554,-116.223 c 13.407,-13.556 27.004,-27.088 40.36,-40.606 13.759,-13.918 19.949,-31.051 19.598,-50.214 0.01,-27.159 -19.69,-44.71 -37.885,-61.983 -9.443,-8.964 -18.879,-18.503 -28.36,-27.692 -32.203,-31.212 -62.951,-64.623995 -95.901,-95.027995 z"
     id="path3" />
</svg>
